M48
; DRILL file {KiCad 9.0.6} date 2026-03-09T22:12:04-0500
; FORMAT={-:-/ absolute / metric / decimal}
; #@! TF.CreationDate,2026-03-09T22:12:04-05:00
; #@! TF.GenerationSoftware,Kicad,Pcbnew,9.0.6
; #@! TF.FileFunction,Plated,1,2,PTH
FMAT,2
METRIC
; #@! TA.AperFunction,Plated,PTH,ViaDrill
T1C0.300
; #@! TA.AperFunction,Plated,PTH,ComponentDrill
T2C0.787
; #@! TA.AperFunction,Plated,PTH,ComponentDrill
T3C0.800
; #@! TA.AperFunction,Plated,PTH,ComponentDrill
T4C0.850
; #@! TA.AperFunction,Plated,PTH,ComponentDrill
T5C0.900
; #@! TA.AperFunction,Plated,PTH,ComponentDrill
T6C1.000
%
G90
G05
T1
X186.0Y-64.0
X190.0Y-72.0
X190.0Y-82.0
X193.0Y-78.359
X193.221Y-72.221
X198.0Y-86.0
X198.876Y-74.436
X199.0Y-79.0
X204.0Y-67.0
X204.0Y-95.0
X204.0Y-101.0
X205.0Y-78.0
X213.134Y-94.866
X223.0Y-77.0
X226.0Y-77.0
X228.0Y-99.0
X230.6Y-97.6
T2
X184.543Y-71.088
X184.543Y-73.628
X184.543Y-76.168
X184.543Y-78.708
X184.543Y-81.248
X184.543Y-83.788
X184.543Y-86.328
X184.543Y-88.868
X192.163Y-71.088
X192.163Y-73.628
X192.163Y-76.168
X192.163Y-78.708
X192.163Y-81.248
X192.163Y-83.788
X192.163Y-86.328
X192.163Y-88.868
T3
X195.21Y-71.33
X195.21Y-75.38
X196.0Y-94.0
X198.0Y-94.0
X202.83Y-71.33
X202.83Y-75.38
X206.905Y-94.565
X206.905Y-97.105
X206.905Y-99.645
X206.905Y-102.185
X214.525Y-94.565
X214.525Y-97.105
X214.525Y-99.645
X214.525Y-102.185
T4
X196.72Y-80.905
X199.26Y-80.905
X201.8Y-80.905
T5
X162.0Y-95.0
X164.54Y-95.0
X165.0Y-78.0
X165.46Y-111.0
X167.54Y-78.0
X168.0Y-111.0
X179.46Y-125.0
X182.0Y-125.0
X187.46Y-61.0
X190.0Y-61.0
X198.46Y-128.0
X201.0Y-128.0
X207.46Y-63.0
X210.0Y-63.0
X218.0Y-121.0
X220.54Y-121.0
X224.46Y-77.0
X227.0Y-77.0
X230.0Y-99.0
X232.54Y-99.0
T6
X185.36Y-92.94
X185.36Y-95.48
X189.95Y-92.94
X195.66Y-87.45
X200.66Y-87.45
M30
