%TF.GenerationSoftware,KiCad,Pcbnew,9.0.6*%
%TF.CreationDate,2026-03-09T22:12:01-05:00*%
%TF.ProjectId,led disk,6c656420-6469-4736-9b2e-6b696361645f,rev?*%
%TF.SameCoordinates,Original*%
%TF.FileFunction,Copper,L2,Bot*%
%TF.FilePolarity,Positive*%
%FSLAX46Y46*%
G04 Gerber Fmt 4.6, Leading zero omitted, Abs format (unit mm)*
G04 Created by KiCad (PCBNEW 9.0.6) date 2026-03-09 22:12:01*
%MOMM*%
%LPD*%
G01*
G04 APERTURE LIST*
G04 Aperture macros list*
%AMRoundRect*
0 Rectangle with rounded corners*
0 $1 Rounding radius*
0 $2 $3 $4 $5 $6 $7 $8 $9 X,Y pos of 4 corners*
0 Add a 4 corners polygon primitive as box body*
4,1,4,$2,$3,$4,$5,$6,$7,$8,$9,$2,$3,0*
0 Add four circle primitives for the rounded corners*
1,1,$1+$1,$2,$3*
1,1,$1+$1,$4,$5*
1,1,$1+$1,$6,$7*
1,1,$1+$1,$8,$9*
0 Add four rect primitives between the rounded corners*
20,1,$1+$1,$2,$3,$4,$5,0*
20,1,$1+$1,$4,$5,$6,$7,0*
20,1,$1+$1,$6,$7,$8,$9,0*
20,1,$1+$1,$8,$9,$2,$3,0*%
G04 Aperture macros list end*
%TA.AperFunction,ComponentPad*%
%ADD10C,1.800000*%
%TD*%
%TA.AperFunction,ComponentPad*%
%ADD11R,1.800000X1.800000*%
%TD*%
%TA.AperFunction,ComponentPad*%
%ADD12R,1.295400X1.295400*%
%TD*%
%TA.AperFunction,ComponentPad*%
%ADD13C,1.295400*%
%TD*%
%TA.AperFunction,ComponentPad*%
%ADD14RoundRect,0.412500X-0.412500X-0.412500X0.412500X-0.412500X0.412500X0.412500X-0.412500X0.412500X0*%
%TD*%
%TA.AperFunction,ComponentPad*%
%ADD15C,1.650000*%
%TD*%
%TA.AperFunction,ComponentPad*%
%ADD16C,1.600000*%
%TD*%
%TA.AperFunction,ComponentPad*%
%ADD17R,1.700000X1.700000*%
%TD*%
%TA.AperFunction,ComponentPad*%
%ADD18C,1.700000*%
%TD*%
%TA.AperFunction,ComponentPad*%
%ADD19RoundRect,0.250000X-0.550000X-0.550000X0.550000X-0.550000X0.550000X0.550000X-0.550000X0.550000X0*%
%TD*%
%TA.AperFunction,ComponentPad*%
%ADD20C,2.000000*%
%TD*%
%TA.AperFunction,ViaPad*%
%ADD21C,0.600000*%
%TD*%
%TA.AperFunction,Conductor*%
%ADD22C,0.200000*%
%TD*%
G04 APERTURE END LIST*
D10*
%TO.P,D1,2,A*%
%TO.N,Net-(D1-A)*%
X167540000Y-78000000D03*
D11*
%TO.P,D1,1,K*%
%TO.N,Net-(D1-K)*%
X165000000Y-78000000D03*
%TD*%
D10*
%TO.P,D6,2,A*%
%TO.N,Net-(D6-A)*%
X168000000Y-111000000D03*
D11*
%TO.P,D6,1,K*%
%TO.N,Net-(D1-K)*%
X165460000Y-111000000D03*
%TD*%
D12*
%TO.P,U2,1,Q5*%
%TO.N,Net-(D2-A)*%
X184543125Y-71087700D03*
D13*
%TO.P,U2,2,Q1*%
%TO.N,Net-(D8-A)*%
X184543125Y-73627700D03*
%TO.P,U2,3,Q0*%
%TO.N,Net-(D10-A)*%
X184543125Y-76167700D03*
%TO.P,U2,4,Q2*%
%TO.N,Net-(D1-A)*%
X184543125Y-78707700D03*
%TO.P,U2,5,Q6*%
%TO.N,Net-(D3-A)*%
X184543125Y-81247700D03*
%TO.P,U2,6,Q7*%
%TO.N,Net-(D6-A)*%
X184543125Y-83787700D03*
%TO.P,U2,7,Q3*%
%TO.N,Net-(D7-A)*%
X184543125Y-86327700D03*
%TO.P,U2,8,VSS*%
%TO.N,GND*%
X184543125Y-88867700D03*
%TO.P,U2,9,Q8*%
%TO.N,Net-(D4-A)*%
X192163125Y-88867700D03*
%TO.P,U2,10,Q4*%
%TO.N,Net-(D9-A)*%
X192163125Y-86327700D03*
%TO.P,U2,11,Q9*%
%TO.N,Net-(D5-A)*%
X192163125Y-83787700D03*
%TO.P,U2,12,Cout*%
%TO.N,unconnected-(U2-Cout-Pad12)*%
X192163125Y-81247700D03*
%TO.P,U2,13,CKEN*%
%TO.N,GND*%
X192163125Y-78707700D03*
%TO.P,U2,14,CLK*%
%TO.N,OUT*%
X192163125Y-76167700D03*
%TO.P,U2,15,Reset*%
%TO.N,GND*%
X192163125Y-73627700D03*
%TO.P,U2,16,VDD*%
%TO.N,+5V*%
X192163125Y-71087700D03*
%TD*%
D14*
%TO.P,RV1,1,1*%
%TO.N,Net-(U1-DIS)*%
X196720225Y-80905000D03*
D15*
%TO.P,RV1,2,2*%
X199260225Y-80905000D03*
%TO.P,RV1,3,3*%
%TO.N,TR*%
X201800225Y-80905000D03*
%TD*%
D16*
%TO.P,R2,1*%
%TO.N,Net-(D1-K)*%
X195210225Y-75380000D03*
%TO.P,R2,2*%
%TO.N,GND*%
X202830225Y-75380000D03*
%TD*%
%TO.P,R1,1*%
%TO.N,+5V*%
X195210225Y-71330000D03*
%TO.P,R1,2*%
%TO.N,Net-(U1-DIS)*%
X202830225Y-71330000D03*
%TD*%
D17*
%TO.P,J2,1,Pin_1*%
%TO.N,unconnected-(J2-Pin_1-Pad1)*%
X189950225Y-92940000D03*
%TD*%
%TO.P,J1,1,Pin_1*%
%TO.N,+5V*%
X185360225Y-92940000D03*
D18*
%TO.P,J1,2,Pin_2*%
%TO.N,GND*%
X185360225Y-95480000D03*
%TD*%
D11*
%TO.P,D10,1,K*%
%TO.N,Net-(D1-K)*%
X207460000Y-63000000D03*
D10*
%TO.P,D10,2,A*%
%TO.N,Net-(D10-A)*%
X210000000Y-63000000D03*
%TD*%
D11*
%TO.P,D9,1,K*%
%TO.N,Net-(D1-K)*%
X179460000Y-125000000D03*
D10*
%TO.P,D9,2,A*%
%TO.N,Net-(D9-A)*%
X182000000Y-125000000D03*
%TD*%
D11*
%TO.P,D8,1,K*%
%TO.N,Net-(D1-K)*%
X230000000Y-99000000D03*
D10*
%TO.P,D8,2,A*%
%TO.N,Net-(D8-A)*%
X232540000Y-99000000D03*
%TD*%
D11*
%TO.P,D7,1,K*%
%TO.N,Net-(D1-K)*%
X224460000Y-77000000D03*
D10*
%TO.P,D7,2,A*%
%TO.N,Net-(D7-A)*%
X227000000Y-77000000D03*
%TD*%
D11*
%TO.P,D5,1,K*%
%TO.N,Net-(D1-K)*%
X218000000Y-121000000D03*
D10*
%TO.P,D5,2,A*%
%TO.N,Net-(D5-A)*%
X220540000Y-121000000D03*
%TD*%
D11*
%TO.P,D4,1,K*%
%TO.N,Net-(D1-K)*%
X198460000Y-128000000D03*
D10*
%TO.P,D4,2,A*%
%TO.N,Net-(D4-A)*%
X201000000Y-128000000D03*
%TD*%
D11*
%TO.P,D3,1,K*%
%TO.N,Net-(D1-K)*%
X162000000Y-95000000D03*
D10*
%TO.P,D3,2,A*%
%TO.N,Net-(D3-A)*%
X164540000Y-95000000D03*
%TD*%
D11*
%TO.P,D2,1,K*%
%TO.N,Net-(D1-K)*%
X187460000Y-61000000D03*
D10*
%TO.P,D2,2,A*%
%TO.N,Net-(D2-A)*%
X190000000Y-61000000D03*
%TD*%
D19*
%TO.P,C2,1*%
%TO.N,Net-(U1-CV)*%
X196000000Y-94000000D03*
D16*
%TO.P,C2,2*%
%TO.N,GND*%
X198000000Y-94000000D03*
%TD*%
D20*
%TO.P,C1,1*%
%TO.N,TR*%
X195660225Y-87450000D03*
%TO.P,C1,2*%
%TO.N,GND*%
X200660225Y-87450000D03*
%TD*%
D19*
%TO.P,U1,1,GND*%
%TO.N,GND*%
X206905000Y-94565000D03*
D16*
%TO.P,U1,2,TR*%
%TO.N,TR*%
X206905000Y-97105000D03*
%TO.P,U1,3,Q*%
%TO.N,out*%
X206905000Y-99645000D03*
%TO.P,U1,4,R*%
%TO.N,+5V*%
X206905000Y-102185000D03*
%TO.P,U1,5,CV*%
%TO.N,Net-(U1-CV)*%
X214525000Y-102185000D03*
%TO.P,U1,6,THR*%
%TO.N,TR*%
X214525000Y-99645000D03*
%TO.P,U1,7,DIS*%
%TO.N,Net-(U1-DIS)*%
X214525000Y-97105000D03*
%TO.P,U1,8,VCC*%
%TO.N,+5V*%
X214525000Y-94565000D03*
%TD*%
D21*
%TO.N,Net-(D7-A)*%
X223000000Y-77000000D03*
X226000000Y-77000000D03*
%TO.N,GND*%
X198875735Y-74435960D03*
X193000000Y-78359000D03*
%TO.N,Net-(U1-DIS)*%
X199000000Y-79000000D03*
%TO.N,+5V*%
X193220510Y-72220510D03*
X190000000Y-72000000D03*
X190000000Y-82000000D03*
X204000000Y-101000000D03*
X213134265Y-94865735D03*
%TO.N,TR*%
X204000000Y-95000000D03*
X198000000Y-86000000D03*
%TO.N,Net-(D1-K)*%
X204000000Y-67000000D03*
X186000000Y-64000000D03*
%TO.N,Net-(D7-A)*%
X205000000Y-78000000D03*
%TO.N,Net-(D8-A)*%
X230600000Y-97599998D03*
X228000000Y-99000000D03*
%TD*%
D22*
%TO.N,Net-(D7-A)*%
X223000000Y-76000000D02*
X223000000Y-77000000D01*
X223201000Y-75799000D02*
X223000000Y-76000000D01*
X225661000Y-75799000D02*
X223201000Y-75799000D01*
X226000000Y-76138000D02*
X225661000Y-75799000D01*
X226000000Y-77000000D02*
X226000000Y-76138000D01*
%TO.N,GND*%
X199819775Y-75380000D02*
X202830225Y-75380000D01*
X198875735Y-74435960D02*
X199819775Y-75380000D01*
X193111825Y-78247175D02*
X193111825Y-74576400D01*
X193000000Y-78359000D02*
X193111825Y-78247175D01*
X193111825Y-74576400D02*
X192163125Y-73627700D01*
%TO.N,Net-(U1-DIS)*%
X199000000Y-79000000D02*
X199260225Y-79260225D01*
X199260225Y-79260225D02*
X199260225Y-80905000D01*
%TO.N,+5V*%
X193220510Y-72145085D02*
X192163125Y-71087700D01*
X193220510Y-72220510D02*
X193220510Y-72145085D01*
X190000000Y-72000000D02*
X190524060Y-72524060D01*
X190000000Y-82000000D02*
X190000000Y-72000000D01*
X193420225Y-101000000D02*
X185360225Y-92940000D01*
X204000000Y-101000000D02*
X193420225Y-101000000D01*
X213134265Y-95955735D02*
X206905000Y-102185000D01*
X213134265Y-94865735D02*
X213134265Y-95955735D01*
%TO.N,TR*%
X204000000Y-95000000D02*
X198000000Y-89000000D01*
X198000000Y-89000000D02*
X198000000Y-86000000D01*
X198000000Y-86000000D02*
X201800225Y-82199775D01*
X201800225Y-82199775D02*
X201800225Y-80905000D01*
%TO.N,Net-(D1-K)*%
X204000000Y-68212490D02*
X196832490Y-75380000D01*
X204000000Y-67000000D02*
X204000000Y-68212490D01*
X196832490Y-75380000D02*
X195210225Y-75380000D01*
X195210225Y-75210225D02*
X195210225Y-75380000D01*
X192679000Y-72679000D02*
X195210225Y-75210225D01*
X191770160Y-72679000D02*
X192679000Y-72679000D01*
X186000000Y-64000000D02*
X186000000Y-66908840D01*
X186000000Y-66908840D02*
X191770160Y-72679000D01*
%TO.N,Net-(D7-A)*%
X196621000Y-85379000D02*
X185491825Y-85379000D01*
X200674225Y-81325775D02*
X196621000Y-85379000D01*
X200674225Y-80438595D02*
X200674225Y-81325775D01*
X203112820Y-78000000D02*
X200674225Y-80438595D01*
X205000000Y-78000000D02*
X203112820Y-78000000D01*
X185491825Y-85379000D02*
X184543125Y-86327700D01*
%TO.N,Net-(D8-A)*%
X228400002Y-97599998D02*
X228000000Y-98000000D01*
X230600000Y-97599998D02*
X228400002Y-97599998D01*
X228000000Y-98000000D02*
X228000000Y-99000000D01*
%TD*%
M02*
