%TF.GenerationSoftware,KiCad,Pcbnew,9.0.6*%
%TF.CreationDate,2026-03-09T22:12:01-05:00*%
%TF.ProjectId,led disk,6c656420-6469-4736-9b2e-6b696361645f,rev?*%
%TF.SameCoordinates,Original*%
%TF.FileFunction,Legend,Top*%
%TF.FilePolarity,Positive*%
%FSLAX46Y46*%
G04 Gerber Fmt 4.6, Leading zero omitted, Abs format (unit mm)*
G04 Created by KiCad (PCBNEW 9.0.6) date 2026-03-09 22:12:01*
%MOMM*%
%LPD*%
G01*
G04 APERTURE LIST*
%ADD10C,0.150000*%
%ADD11C,0.120000*%
%ADD12C,0.152400*%
G04 APERTURE END LIST*
D10*
X165531905Y-75494819D02*
X165531905Y-74494819D01*
X165531905Y-74494819D02*
X165770000Y-74494819D01*
X165770000Y-74494819D02*
X165912857Y-74542438D01*
X165912857Y-74542438D02*
X166008095Y-74637676D01*
X166008095Y-74637676D02*
X166055714Y-74732914D01*
X166055714Y-74732914D02*
X166103333Y-74923390D01*
X166103333Y-74923390D02*
X166103333Y-75066247D01*
X166103333Y-75066247D02*
X166055714Y-75256723D01*
X166055714Y-75256723D02*
X166008095Y-75351961D01*
X166008095Y-75351961D02*
X165912857Y-75447200D01*
X165912857Y-75447200D02*
X165770000Y-75494819D01*
X165770000Y-75494819D02*
X165531905Y-75494819D01*
X167055714Y-75494819D02*
X166484286Y-75494819D01*
X166770000Y-75494819D02*
X166770000Y-74494819D01*
X166770000Y-74494819D02*
X166674762Y-74637676D01*
X166674762Y-74637676D02*
X166579524Y-74732914D01*
X166579524Y-74732914D02*
X166484286Y-74780533D01*
X165991905Y-108494819D02*
X165991905Y-107494819D01*
X165991905Y-107494819D02*
X166230000Y-107494819D01*
X166230000Y-107494819D02*
X166372857Y-107542438D01*
X166372857Y-107542438D02*
X166468095Y-107637676D01*
X166468095Y-107637676D02*
X166515714Y-107732914D01*
X166515714Y-107732914D02*
X166563333Y-107923390D01*
X166563333Y-107923390D02*
X166563333Y-108066247D01*
X166563333Y-108066247D02*
X166515714Y-108256723D01*
X166515714Y-108256723D02*
X166468095Y-108351961D01*
X166468095Y-108351961D02*
X166372857Y-108447200D01*
X166372857Y-108447200D02*
X166230000Y-108494819D01*
X166230000Y-108494819D02*
X165991905Y-108494819D01*
X167420476Y-107494819D02*
X167230000Y-107494819D01*
X167230000Y-107494819D02*
X167134762Y-107542438D01*
X167134762Y-107542438D02*
X167087143Y-107590057D01*
X167087143Y-107590057D02*
X166991905Y-107732914D01*
X166991905Y-107732914D02*
X166944286Y-107923390D01*
X166944286Y-107923390D02*
X166944286Y-108304342D01*
X166944286Y-108304342D02*
X166991905Y-108399580D01*
X166991905Y-108399580D02*
X167039524Y-108447200D01*
X167039524Y-108447200D02*
X167134762Y-108494819D01*
X167134762Y-108494819D02*
X167325238Y-108494819D01*
X167325238Y-108494819D02*
X167420476Y-108447200D01*
X167420476Y-108447200D02*
X167468095Y-108399580D01*
X167468095Y-108399580D02*
X167515714Y-108304342D01*
X167515714Y-108304342D02*
X167515714Y-108066247D01*
X167515714Y-108066247D02*
X167468095Y-107971009D01*
X167468095Y-107971009D02*
X167420476Y-107923390D01*
X167420476Y-107923390D02*
X167325238Y-107875771D01*
X167325238Y-107875771D02*
X167134762Y-107875771D01*
X167134762Y-107875771D02*
X167039524Y-107923390D01*
X167039524Y-107923390D02*
X166991905Y-107971009D01*
X166991905Y-107971009D02*
X166944286Y-108066247D01*
X187591220Y-79432519D02*
X187591220Y-80242042D01*
X187591220Y-80242042D02*
X187638839Y-80337280D01*
X187638839Y-80337280D02*
X187686458Y-80384900D01*
X187686458Y-80384900D02*
X187781696Y-80432519D01*
X187781696Y-80432519D02*
X187972172Y-80432519D01*
X187972172Y-80432519D02*
X188067410Y-80384900D01*
X188067410Y-80384900D02*
X188115029Y-80337280D01*
X188115029Y-80337280D02*
X188162648Y-80242042D01*
X188162648Y-80242042D02*
X188162648Y-79432519D01*
X188591220Y-79527757D02*
X188638839Y-79480138D01*
X188638839Y-79480138D02*
X188734077Y-79432519D01*
X188734077Y-79432519D02*
X188972172Y-79432519D01*
X188972172Y-79432519D02*
X189067410Y-79480138D01*
X189067410Y-79480138D02*
X189115029Y-79527757D01*
X189115029Y-79527757D02*
X189162648Y-79622995D01*
X189162648Y-79622995D02*
X189162648Y-79718233D01*
X189162648Y-79718233D02*
X189115029Y-79861090D01*
X189115029Y-79861090D02*
X188543601Y-80432519D01*
X188543601Y-80432519D02*
X189162648Y-80432519D01*
X184543125Y-69132819D02*
X184543125Y-69370914D01*
X184305030Y-69275676D02*
X184543125Y-69370914D01*
X184543125Y-69370914D02*
X184781220Y-69275676D01*
X184400268Y-69561390D02*
X184543125Y-69370914D01*
X184543125Y-69370914D02*
X184685982Y-69561390D01*
X184543125Y-69132819D02*
X184543125Y-69370914D01*
X184305030Y-69275676D02*
X184543125Y-69370914D01*
X184543125Y-69370914D02*
X184781220Y-69275676D01*
X184400268Y-69561390D02*
X184543125Y-69370914D01*
X184543125Y-69370914D02*
X184685982Y-69561390D01*
X198664986Y-77859819D02*
X198331653Y-77383628D01*
X198093558Y-77859819D02*
X198093558Y-76859819D01*
X198093558Y-76859819D02*
X198474510Y-76859819D01*
X198474510Y-76859819D02*
X198569748Y-76907438D01*
X198569748Y-76907438D02*
X198617367Y-76955057D01*
X198617367Y-76955057D02*
X198664986Y-77050295D01*
X198664986Y-77050295D02*
X198664986Y-77193152D01*
X198664986Y-77193152D02*
X198617367Y-77288390D01*
X198617367Y-77288390D02*
X198569748Y-77336009D01*
X198569748Y-77336009D02*
X198474510Y-77383628D01*
X198474510Y-77383628D02*
X198093558Y-77383628D01*
X198950701Y-76859819D02*
X199284034Y-77859819D01*
X199284034Y-77859819D02*
X199617367Y-76859819D01*
X200474510Y-77859819D02*
X199903082Y-77859819D01*
X200188796Y-77859819D02*
X200188796Y-76859819D01*
X200188796Y-76859819D02*
X200093558Y-77002676D01*
X200093558Y-77002676D02*
X199998320Y-77097914D01*
X199998320Y-77097914D02*
X199903082Y-77145533D01*
X198853558Y-73464819D02*
X198520225Y-72988628D01*
X198282130Y-73464819D02*
X198282130Y-72464819D01*
X198282130Y-72464819D02*
X198663082Y-72464819D01*
X198663082Y-72464819D02*
X198758320Y-72512438D01*
X198758320Y-72512438D02*
X198805939Y-72560057D01*
X198805939Y-72560057D02*
X198853558Y-72655295D01*
X198853558Y-72655295D02*
X198853558Y-72798152D01*
X198853558Y-72798152D02*
X198805939Y-72893390D01*
X198805939Y-72893390D02*
X198758320Y-72941009D01*
X198758320Y-72941009D02*
X198663082Y-72988628D01*
X198663082Y-72988628D02*
X198282130Y-72988628D01*
X199234511Y-72560057D02*
X199282130Y-72512438D01*
X199282130Y-72512438D02*
X199377368Y-72464819D01*
X199377368Y-72464819D02*
X199615463Y-72464819D01*
X199615463Y-72464819D02*
X199710701Y-72512438D01*
X199710701Y-72512438D02*
X199758320Y-72560057D01*
X199758320Y-72560057D02*
X199805939Y-72655295D01*
X199805939Y-72655295D02*
X199805939Y-72750533D01*
X199805939Y-72750533D02*
X199758320Y-72893390D01*
X199758320Y-72893390D02*
X199186892Y-73464819D01*
X199186892Y-73464819D02*
X199805939Y-73464819D01*
X198853558Y-69414819D02*
X198520225Y-68938628D01*
X198282130Y-69414819D02*
X198282130Y-68414819D01*
X198282130Y-68414819D02*
X198663082Y-68414819D01*
X198663082Y-68414819D02*
X198758320Y-68462438D01*
X198758320Y-68462438D02*
X198805939Y-68510057D01*
X198805939Y-68510057D02*
X198853558Y-68605295D01*
X198853558Y-68605295D02*
X198853558Y-68748152D01*
X198853558Y-68748152D02*
X198805939Y-68843390D01*
X198805939Y-68843390D02*
X198758320Y-68891009D01*
X198758320Y-68891009D02*
X198663082Y-68938628D01*
X198663082Y-68938628D02*
X198282130Y-68938628D01*
X199805939Y-69414819D02*
X199234511Y-69414819D01*
X199520225Y-69414819D02*
X199520225Y-68414819D01*
X199520225Y-68414819D02*
X199424987Y-68557676D01*
X199424987Y-68557676D02*
X199329749Y-68652914D01*
X199329749Y-68652914D02*
X199234511Y-68700533D01*
X189616891Y-90014819D02*
X189616891Y-90729104D01*
X189616891Y-90729104D02*
X189569272Y-90871961D01*
X189569272Y-90871961D02*
X189474034Y-90967200D01*
X189474034Y-90967200D02*
X189331177Y-91014819D01*
X189331177Y-91014819D02*
X189235939Y-91014819D01*
X190045463Y-90110057D02*
X190093082Y-90062438D01*
X190093082Y-90062438D02*
X190188320Y-90014819D01*
X190188320Y-90014819D02*
X190426415Y-90014819D01*
X190426415Y-90014819D02*
X190521653Y-90062438D01*
X190521653Y-90062438D02*
X190569272Y-90110057D01*
X190569272Y-90110057D02*
X190616891Y-90205295D01*
X190616891Y-90205295D02*
X190616891Y-90300533D01*
X190616891Y-90300533D02*
X190569272Y-90443390D01*
X190569272Y-90443390D02*
X189997844Y-91014819D01*
X189997844Y-91014819D02*
X190616891Y-91014819D01*
X185026891Y-90014819D02*
X185026891Y-90729104D01*
X185026891Y-90729104D02*
X184979272Y-90871961D01*
X184979272Y-90871961D02*
X184884034Y-90967200D01*
X184884034Y-90967200D02*
X184741177Y-91014819D01*
X184741177Y-91014819D02*
X184645939Y-91014819D01*
X186026891Y-91014819D02*
X185455463Y-91014819D01*
X185741177Y-91014819D02*
X185741177Y-90014819D01*
X185741177Y-90014819D02*
X185645939Y-90157676D01*
X185645939Y-90157676D02*
X185550701Y-90252914D01*
X185550701Y-90252914D02*
X185455463Y-90300533D01*
X207515714Y-60494819D02*
X207515714Y-59494819D01*
X207515714Y-59494819D02*
X207753809Y-59494819D01*
X207753809Y-59494819D02*
X207896666Y-59542438D01*
X207896666Y-59542438D02*
X207991904Y-59637676D01*
X207991904Y-59637676D02*
X208039523Y-59732914D01*
X208039523Y-59732914D02*
X208087142Y-59923390D01*
X208087142Y-59923390D02*
X208087142Y-60066247D01*
X208087142Y-60066247D02*
X208039523Y-60256723D01*
X208039523Y-60256723D02*
X207991904Y-60351961D01*
X207991904Y-60351961D02*
X207896666Y-60447200D01*
X207896666Y-60447200D02*
X207753809Y-60494819D01*
X207753809Y-60494819D02*
X207515714Y-60494819D01*
X209039523Y-60494819D02*
X208468095Y-60494819D01*
X208753809Y-60494819D02*
X208753809Y-59494819D01*
X208753809Y-59494819D02*
X208658571Y-59637676D01*
X208658571Y-59637676D02*
X208563333Y-59732914D01*
X208563333Y-59732914D02*
X208468095Y-59780533D01*
X209658571Y-59494819D02*
X209753809Y-59494819D01*
X209753809Y-59494819D02*
X209849047Y-59542438D01*
X209849047Y-59542438D02*
X209896666Y-59590057D01*
X209896666Y-59590057D02*
X209944285Y-59685295D01*
X209944285Y-59685295D02*
X209991904Y-59875771D01*
X209991904Y-59875771D02*
X209991904Y-60113866D01*
X209991904Y-60113866D02*
X209944285Y-60304342D01*
X209944285Y-60304342D02*
X209896666Y-60399580D01*
X209896666Y-60399580D02*
X209849047Y-60447200D01*
X209849047Y-60447200D02*
X209753809Y-60494819D01*
X209753809Y-60494819D02*
X209658571Y-60494819D01*
X209658571Y-60494819D02*
X209563333Y-60447200D01*
X209563333Y-60447200D02*
X209515714Y-60399580D01*
X209515714Y-60399580D02*
X209468095Y-60304342D01*
X209468095Y-60304342D02*
X209420476Y-60113866D01*
X209420476Y-60113866D02*
X209420476Y-59875771D01*
X209420476Y-59875771D02*
X209468095Y-59685295D01*
X209468095Y-59685295D02*
X209515714Y-59590057D01*
X209515714Y-59590057D02*
X209563333Y-59542438D01*
X209563333Y-59542438D02*
X209658571Y-59494819D01*
X179991905Y-122494819D02*
X179991905Y-121494819D01*
X179991905Y-121494819D02*
X180230000Y-121494819D01*
X180230000Y-121494819D02*
X180372857Y-121542438D01*
X180372857Y-121542438D02*
X180468095Y-121637676D01*
X180468095Y-121637676D02*
X180515714Y-121732914D01*
X180515714Y-121732914D02*
X180563333Y-121923390D01*
X180563333Y-121923390D02*
X180563333Y-122066247D01*
X180563333Y-122066247D02*
X180515714Y-122256723D01*
X180515714Y-122256723D02*
X180468095Y-122351961D01*
X180468095Y-122351961D02*
X180372857Y-122447200D01*
X180372857Y-122447200D02*
X180230000Y-122494819D01*
X180230000Y-122494819D02*
X179991905Y-122494819D01*
X181039524Y-122494819D02*
X181230000Y-122494819D01*
X181230000Y-122494819D02*
X181325238Y-122447200D01*
X181325238Y-122447200D02*
X181372857Y-122399580D01*
X181372857Y-122399580D02*
X181468095Y-122256723D01*
X181468095Y-122256723D02*
X181515714Y-122066247D01*
X181515714Y-122066247D02*
X181515714Y-121685295D01*
X181515714Y-121685295D02*
X181468095Y-121590057D01*
X181468095Y-121590057D02*
X181420476Y-121542438D01*
X181420476Y-121542438D02*
X181325238Y-121494819D01*
X181325238Y-121494819D02*
X181134762Y-121494819D01*
X181134762Y-121494819D02*
X181039524Y-121542438D01*
X181039524Y-121542438D02*
X180991905Y-121590057D01*
X180991905Y-121590057D02*
X180944286Y-121685295D01*
X180944286Y-121685295D02*
X180944286Y-121923390D01*
X180944286Y-121923390D02*
X180991905Y-122018628D01*
X180991905Y-122018628D02*
X181039524Y-122066247D01*
X181039524Y-122066247D02*
X181134762Y-122113866D01*
X181134762Y-122113866D02*
X181325238Y-122113866D01*
X181325238Y-122113866D02*
X181420476Y-122066247D01*
X181420476Y-122066247D02*
X181468095Y-122018628D01*
X181468095Y-122018628D02*
X181515714Y-121923390D01*
X230531905Y-96494819D02*
X230531905Y-95494819D01*
X230531905Y-95494819D02*
X230770000Y-95494819D01*
X230770000Y-95494819D02*
X230912857Y-95542438D01*
X230912857Y-95542438D02*
X231008095Y-95637676D01*
X231008095Y-95637676D02*
X231055714Y-95732914D01*
X231055714Y-95732914D02*
X231103333Y-95923390D01*
X231103333Y-95923390D02*
X231103333Y-96066247D01*
X231103333Y-96066247D02*
X231055714Y-96256723D01*
X231055714Y-96256723D02*
X231008095Y-96351961D01*
X231008095Y-96351961D02*
X230912857Y-96447200D01*
X230912857Y-96447200D02*
X230770000Y-96494819D01*
X230770000Y-96494819D02*
X230531905Y-96494819D01*
X231674762Y-95923390D02*
X231579524Y-95875771D01*
X231579524Y-95875771D02*
X231531905Y-95828152D01*
X231531905Y-95828152D02*
X231484286Y-95732914D01*
X231484286Y-95732914D02*
X231484286Y-95685295D01*
X231484286Y-95685295D02*
X231531905Y-95590057D01*
X231531905Y-95590057D02*
X231579524Y-95542438D01*
X231579524Y-95542438D02*
X231674762Y-95494819D01*
X231674762Y-95494819D02*
X231865238Y-95494819D01*
X231865238Y-95494819D02*
X231960476Y-95542438D01*
X231960476Y-95542438D02*
X232008095Y-95590057D01*
X232008095Y-95590057D02*
X232055714Y-95685295D01*
X232055714Y-95685295D02*
X232055714Y-95732914D01*
X232055714Y-95732914D02*
X232008095Y-95828152D01*
X232008095Y-95828152D02*
X231960476Y-95875771D01*
X231960476Y-95875771D02*
X231865238Y-95923390D01*
X231865238Y-95923390D02*
X231674762Y-95923390D01*
X231674762Y-95923390D02*
X231579524Y-95971009D01*
X231579524Y-95971009D02*
X231531905Y-96018628D01*
X231531905Y-96018628D02*
X231484286Y-96113866D01*
X231484286Y-96113866D02*
X231484286Y-96304342D01*
X231484286Y-96304342D02*
X231531905Y-96399580D01*
X231531905Y-96399580D02*
X231579524Y-96447200D01*
X231579524Y-96447200D02*
X231674762Y-96494819D01*
X231674762Y-96494819D02*
X231865238Y-96494819D01*
X231865238Y-96494819D02*
X231960476Y-96447200D01*
X231960476Y-96447200D02*
X232008095Y-96399580D01*
X232008095Y-96399580D02*
X232055714Y-96304342D01*
X232055714Y-96304342D02*
X232055714Y-96113866D01*
X232055714Y-96113866D02*
X232008095Y-96018628D01*
X232008095Y-96018628D02*
X231960476Y-95971009D01*
X231960476Y-95971009D02*
X231865238Y-95923390D01*
X224991905Y-74494819D02*
X224991905Y-73494819D01*
X224991905Y-73494819D02*
X225230000Y-73494819D01*
X225230000Y-73494819D02*
X225372857Y-73542438D01*
X225372857Y-73542438D02*
X225468095Y-73637676D01*
X225468095Y-73637676D02*
X225515714Y-73732914D01*
X225515714Y-73732914D02*
X225563333Y-73923390D01*
X225563333Y-73923390D02*
X225563333Y-74066247D01*
X225563333Y-74066247D02*
X225515714Y-74256723D01*
X225515714Y-74256723D02*
X225468095Y-74351961D01*
X225468095Y-74351961D02*
X225372857Y-74447200D01*
X225372857Y-74447200D02*
X225230000Y-74494819D01*
X225230000Y-74494819D02*
X224991905Y-74494819D01*
X225896667Y-73494819D02*
X226563333Y-73494819D01*
X226563333Y-73494819D02*
X226134762Y-74494819D01*
X218531905Y-118494819D02*
X218531905Y-117494819D01*
X218531905Y-117494819D02*
X218770000Y-117494819D01*
X218770000Y-117494819D02*
X218912857Y-117542438D01*
X218912857Y-117542438D02*
X219008095Y-117637676D01*
X219008095Y-117637676D02*
X219055714Y-117732914D01*
X219055714Y-117732914D02*
X219103333Y-117923390D01*
X219103333Y-117923390D02*
X219103333Y-118066247D01*
X219103333Y-118066247D02*
X219055714Y-118256723D01*
X219055714Y-118256723D02*
X219008095Y-118351961D01*
X219008095Y-118351961D02*
X218912857Y-118447200D01*
X218912857Y-118447200D02*
X218770000Y-118494819D01*
X218770000Y-118494819D02*
X218531905Y-118494819D01*
X220008095Y-117494819D02*
X219531905Y-117494819D01*
X219531905Y-117494819D02*
X219484286Y-117971009D01*
X219484286Y-117971009D02*
X219531905Y-117923390D01*
X219531905Y-117923390D02*
X219627143Y-117875771D01*
X219627143Y-117875771D02*
X219865238Y-117875771D01*
X219865238Y-117875771D02*
X219960476Y-117923390D01*
X219960476Y-117923390D02*
X220008095Y-117971009D01*
X220008095Y-117971009D02*
X220055714Y-118066247D01*
X220055714Y-118066247D02*
X220055714Y-118304342D01*
X220055714Y-118304342D02*
X220008095Y-118399580D01*
X220008095Y-118399580D02*
X219960476Y-118447200D01*
X219960476Y-118447200D02*
X219865238Y-118494819D01*
X219865238Y-118494819D02*
X219627143Y-118494819D01*
X219627143Y-118494819D02*
X219531905Y-118447200D01*
X219531905Y-118447200D02*
X219484286Y-118399580D01*
X198991905Y-125494819D02*
X198991905Y-124494819D01*
X198991905Y-124494819D02*
X199230000Y-124494819D01*
X199230000Y-124494819D02*
X199372857Y-124542438D01*
X199372857Y-124542438D02*
X199468095Y-124637676D01*
X199468095Y-124637676D02*
X199515714Y-124732914D01*
X199515714Y-124732914D02*
X199563333Y-124923390D01*
X199563333Y-124923390D02*
X199563333Y-125066247D01*
X199563333Y-125066247D02*
X199515714Y-125256723D01*
X199515714Y-125256723D02*
X199468095Y-125351961D01*
X199468095Y-125351961D02*
X199372857Y-125447200D01*
X199372857Y-125447200D02*
X199230000Y-125494819D01*
X199230000Y-125494819D02*
X198991905Y-125494819D01*
X200420476Y-124828152D02*
X200420476Y-125494819D01*
X200182381Y-124447200D02*
X199944286Y-125161485D01*
X199944286Y-125161485D02*
X200563333Y-125161485D01*
X162531905Y-92494819D02*
X162531905Y-91494819D01*
X162531905Y-91494819D02*
X162770000Y-91494819D01*
X162770000Y-91494819D02*
X162912857Y-91542438D01*
X162912857Y-91542438D02*
X163008095Y-91637676D01*
X163008095Y-91637676D02*
X163055714Y-91732914D01*
X163055714Y-91732914D02*
X163103333Y-91923390D01*
X163103333Y-91923390D02*
X163103333Y-92066247D01*
X163103333Y-92066247D02*
X163055714Y-92256723D01*
X163055714Y-92256723D02*
X163008095Y-92351961D01*
X163008095Y-92351961D02*
X162912857Y-92447200D01*
X162912857Y-92447200D02*
X162770000Y-92494819D01*
X162770000Y-92494819D02*
X162531905Y-92494819D01*
X163436667Y-91494819D02*
X164055714Y-91494819D01*
X164055714Y-91494819D02*
X163722381Y-91875771D01*
X163722381Y-91875771D02*
X163865238Y-91875771D01*
X163865238Y-91875771D02*
X163960476Y-91923390D01*
X163960476Y-91923390D02*
X164008095Y-91971009D01*
X164008095Y-91971009D02*
X164055714Y-92066247D01*
X164055714Y-92066247D02*
X164055714Y-92304342D01*
X164055714Y-92304342D02*
X164008095Y-92399580D01*
X164008095Y-92399580D02*
X163960476Y-92447200D01*
X163960476Y-92447200D02*
X163865238Y-92494819D01*
X163865238Y-92494819D02*
X163579524Y-92494819D01*
X163579524Y-92494819D02*
X163484286Y-92447200D01*
X163484286Y-92447200D02*
X163436667Y-92399580D01*
X187991905Y-58494819D02*
X187991905Y-57494819D01*
X187991905Y-57494819D02*
X188230000Y-57494819D01*
X188230000Y-57494819D02*
X188372857Y-57542438D01*
X188372857Y-57542438D02*
X188468095Y-57637676D01*
X188468095Y-57637676D02*
X188515714Y-57732914D01*
X188515714Y-57732914D02*
X188563333Y-57923390D01*
X188563333Y-57923390D02*
X188563333Y-58066247D01*
X188563333Y-58066247D02*
X188515714Y-58256723D01*
X188515714Y-58256723D02*
X188468095Y-58351961D01*
X188468095Y-58351961D02*
X188372857Y-58447200D01*
X188372857Y-58447200D02*
X188230000Y-58494819D01*
X188230000Y-58494819D02*
X187991905Y-58494819D01*
X188944286Y-57590057D02*
X188991905Y-57542438D01*
X188991905Y-57542438D02*
X189087143Y-57494819D01*
X189087143Y-57494819D02*
X189325238Y-57494819D01*
X189325238Y-57494819D02*
X189420476Y-57542438D01*
X189420476Y-57542438D02*
X189468095Y-57590057D01*
X189468095Y-57590057D02*
X189515714Y-57685295D01*
X189515714Y-57685295D02*
X189515714Y-57780533D01*
X189515714Y-57780533D02*
X189468095Y-57923390D01*
X189468095Y-57923390D02*
X188896667Y-58494819D01*
X188896667Y-58494819D02*
X189515714Y-58494819D01*
X196833333Y-90609580D02*
X196785714Y-90657200D01*
X196785714Y-90657200D02*
X196642857Y-90704819D01*
X196642857Y-90704819D02*
X196547619Y-90704819D01*
X196547619Y-90704819D02*
X196404762Y-90657200D01*
X196404762Y-90657200D02*
X196309524Y-90561961D01*
X196309524Y-90561961D02*
X196261905Y-90466723D01*
X196261905Y-90466723D02*
X196214286Y-90276247D01*
X196214286Y-90276247D02*
X196214286Y-90133390D01*
X196214286Y-90133390D02*
X196261905Y-89942914D01*
X196261905Y-89942914D02*
X196309524Y-89847676D01*
X196309524Y-89847676D02*
X196404762Y-89752438D01*
X196404762Y-89752438D02*
X196547619Y-89704819D01*
X196547619Y-89704819D02*
X196642857Y-89704819D01*
X196642857Y-89704819D02*
X196785714Y-89752438D01*
X196785714Y-89752438D02*
X196833333Y-89800057D01*
X197214286Y-89800057D02*
X197261905Y-89752438D01*
X197261905Y-89752438D02*
X197357143Y-89704819D01*
X197357143Y-89704819D02*
X197595238Y-89704819D01*
X197595238Y-89704819D02*
X197690476Y-89752438D01*
X197690476Y-89752438D02*
X197738095Y-89800057D01*
X197738095Y-89800057D02*
X197785714Y-89895295D01*
X197785714Y-89895295D02*
X197785714Y-89990533D01*
X197785714Y-89990533D02*
X197738095Y-90133390D01*
X197738095Y-90133390D02*
X197166667Y-90704819D01*
X197166667Y-90704819D02*
X197785714Y-90704819D01*
X197993558Y-84059580D02*
X197945939Y-84107200D01*
X197945939Y-84107200D02*
X197803082Y-84154819D01*
X197803082Y-84154819D02*
X197707844Y-84154819D01*
X197707844Y-84154819D02*
X197564987Y-84107200D01*
X197564987Y-84107200D02*
X197469749Y-84011961D01*
X197469749Y-84011961D02*
X197422130Y-83916723D01*
X197422130Y-83916723D02*
X197374511Y-83726247D01*
X197374511Y-83726247D02*
X197374511Y-83583390D01*
X197374511Y-83583390D02*
X197422130Y-83392914D01*
X197422130Y-83392914D02*
X197469749Y-83297676D01*
X197469749Y-83297676D02*
X197564987Y-83202438D01*
X197564987Y-83202438D02*
X197707844Y-83154819D01*
X197707844Y-83154819D02*
X197803082Y-83154819D01*
X197803082Y-83154819D02*
X197945939Y-83202438D01*
X197945939Y-83202438D02*
X197993558Y-83250057D01*
X198945939Y-84154819D02*
X198374511Y-84154819D01*
X198660225Y-84154819D02*
X198660225Y-83154819D01*
X198660225Y-83154819D02*
X198564987Y-83297676D01*
X198564987Y-83297676D02*
X198469749Y-83392914D01*
X198469749Y-83392914D02*
X198374511Y-83440533D01*
X218138095Y-91794819D02*
X218138095Y-92604342D01*
X218138095Y-92604342D02*
X218185714Y-92699580D01*
X218185714Y-92699580D02*
X218233333Y-92747200D01*
X218233333Y-92747200D02*
X218328571Y-92794819D01*
X218328571Y-92794819D02*
X218519047Y-92794819D01*
X218519047Y-92794819D02*
X218614285Y-92747200D01*
X218614285Y-92747200D02*
X218661904Y-92699580D01*
X218661904Y-92699580D02*
X218709523Y-92604342D01*
X218709523Y-92604342D02*
X218709523Y-91794819D01*
X219090476Y-91794819D02*
X219709523Y-91794819D01*
X219709523Y-91794819D02*
X219376190Y-92175771D01*
X219376190Y-92175771D02*
X219519047Y-92175771D01*
X219519047Y-92175771D02*
X219614285Y-92223390D01*
X219614285Y-92223390D02*
X219661904Y-92271009D01*
X219661904Y-92271009D02*
X219709523Y-92366247D01*
X219709523Y-92366247D02*
X219709523Y-92604342D01*
X219709523Y-92604342D02*
X219661904Y-92699580D01*
X219661904Y-92699580D02*
X219614285Y-92747200D01*
X219614285Y-92747200D02*
X219519047Y-92794819D01*
X219519047Y-92794819D02*
X219233333Y-92794819D01*
X219233333Y-92794819D02*
X219138095Y-92747200D01*
X219138095Y-92747200D02*
X219090476Y-92699580D01*
X209953095Y-91689819D02*
X209953095Y-92499342D01*
X209953095Y-92499342D02*
X210000714Y-92594580D01*
X210000714Y-92594580D02*
X210048333Y-92642200D01*
X210048333Y-92642200D02*
X210143571Y-92689819D01*
X210143571Y-92689819D02*
X210334047Y-92689819D01*
X210334047Y-92689819D02*
X210429285Y-92642200D01*
X210429285Y-92642200D02*
X210476904Y-92594580D01*
X210476904Y-92594580D02*
X210524523Y-92499342D01*
X210524523Y-92499342D02*
X210524523Y-91689819D01*
X211524523Y-92689819D02*
X210953095Y-92689819D01*
X211238809Y-92689819D02*
X211238809Y-91689819D01*
X211238809Y-91689819D02*
X211143571Y-91832676D01*
X211143571Y-91832676D02*
X211048333Y-91927914D01*
X211048333Y-91927914D02*
X210953095Y-91975533D01*
D11*
%TO.C,D1*%
X167941437Y-79080000D02*
G75*
G02*
X164710000Y-79235516I-1671437J1080000D01*
G01*
X167310961Y-79080000D02*
G75*
G02*
X165229039Y-79080000I-1040961J1080000D01*
G01*
X165229039Y-76920000D02*
G75*
G02*
X167310961Y-76920000I1040961J-1080000D01*
G01*
X164710000Y-76764484D02*
G75*
G02*
X167941437Y-76920000I1560000J-1235516D01*
G01*
X164710000Y-79080000D02*
X164710000Y-79236000D01*
X164710000Y-76764000D02*
X164710000Y-76920000D01*
%TO.C,D6*%
X168401437Y-112080000D02*
G75*
G02*
X165170000Y-112235516I-1671437J1080000D01*
G01*
X167770961Y-112080000D02*
G75*
G02*
X165689039Y-112080000I-1040961J1080000D01*
G01*
X165689039Y-109920000D02*
G75*
G02*
X167770961Y-109920000I1040961J-1080000D01*
G01*
X165170000Y-109764484D02*
G75*
G02*
X168401437Y-109920000I1560000J-1235516D01*
G01*
X165170000Y-112080000D02*
X165170000Y-112236000D01*
X165170000Y-109764000D02*
X165170000Y-109920000D01*
D12*
%TO.C,U2*%
X185051125Y-89820200D02*
X191655125Y-89820200D01*
X191655125Y-88029131D02*
X191655125Y-87166269D01*
X191655125Y-70135200D02*
X185324290Y-70135200D01*
X185051125Y-72068140D02*
X185051125Y-72789131D01*
X188657925Y-70135200D02*
G75*
G02*
X188048325Y-70135200I-304800J0D01*
G01*
X185051125Y-74466269D02*
X185051125Y-75329131D01*
X185051125Y-77006269D02*
X185051125Y-77869131D01*
X185051125Y-79546269D02*
X185051125Y-80409131D01*
X185051125Y-82086269D02*
X185051125Y-82949131D01*
X185051125Y-84626269D02*
X185051125Y-85489131D01*
X185051125Y-87166269D02*
X185051125Y-88029131D01*
X191655125Y-85489131D02*
X191655125Y-84626269D01*
X191655125Y-82949131D02*
X191655125Y-82086269D01*
X191655125Y-80409131D02*
X191655125Y-79546269D01*
X191655125Y-77869131D02*
X191655125Y-77006269D01*
X191655125Y-75329131D02*
X191655125Y-74466269D01*
X191655125Y-72789131D02*
X191655125Y-71926269D01*
D11*
%TO.C,RV1*%
X194300225Y-78295000D02*
X194300225Y-83515000D01*
X194300225Y-78295000D02*
X196420225Y-78295000D01*
X194300225Y-83515000D02*
X204220225Y-83515000D01*
X197120225Y-78295000D02*
X204220225Y-78295000D01*
X204220225Y-78295000D02*
X204220225Y-83515000D01*
X196720225Y-78295000D02*
X196480225Y-77965000D01*
X196960225Y-77965000D01*
X196720225Y-78295000D01*
G36*
X196720225Y-78295000D02*
G01*
X196480225Y-77965000D01*
X196960225Y-77965000D01*
X196720225Y-78295000D01*
G37*
%TO.C,R2*%
X195750225Y-74010000D02*
X202290225Y-74010000D01*
X195750225Y-74340000D02*
X195750225Y-74010000D01*
X195750225Y-76420000D02*
X195750225Y-76750000D01*
X195750225Y-76750000D02*
X202290225Y-76750000D01*
X202290225Y-74010000D02*
X202290225Y-74340000D01*
X202290225Y-76750000D02*
X202290225Y-76420000D01*
%TO.C,R1*%
X195750225Y-69960000D02*
X202290225Y-69960000D01*
X195750225Y-70290000D02*
X195750225Y-69960000D01*
X195750225Y-72370000D02*
X195750225Y-72700000D01*
X195750225Y-72700000D02*
X202290225Y-72700000D01*
X202290225Y-69960000D02*
X202290225Y-70290000D01*
X202290225Y-72700000D02*
X202290225Y-72370000D01*
%TO.C,J2*%
X188570225Y-91560000D02*
X189950225Y-91560000D01*
X188570225Y-92940000D02*
X188570225Y-91560000D01*
X188570225Y-94210000D02*
X188570225Y-94320000D01*
X188570225Y-94210000D02*
X191330225Y-94210000D01*
X188570225Y-94320000D02*
X191330225Y-94320000D01*
X191330225Y-94210000D02*
X191330225Y-94320000D01*
%TO.C,J1*%
X183980225Y-91560000D02*
X185360225Y-91560000D01*
X183980225Y-92940000D02*
X183980225Y-91560000D01*
X183980225Y-94210000D02*
X183980225Y-96860000D01*
X183980225Y-94210000D02*
X186740225Y-94210000D01*
X183980225Y-96860000D02*
X186740225Y-96860000D01*
X186740225Y-94210000D02*
X186740225Y-96860000D01*
%TO.C,D10*%
X207170000Y-61764000D02*
X207170000Y-61920000D01*
X207170000Y-64080000D02*
X207170000Y-64236000D01*
X207170000Y-61764484D02*
G75*
G02*
X210401437Y-61920000I1560000J-1235516D01*
G01*
X207689039Y-61920000D02*
G75*
G02*
X209770961Y-61920000I1040961J-1080000D01*
G01*
X209770961Y-64080000D02*
G75*
G02*
X207689039Y-64080000I-1040961J1080000D01*
G01*
X210401437Y-64080000D02*
G75*
G02*
X207170000Y-64235516I-1671437J1080000D01*
G01*
%TO.C,D9*%
X179170000Y-123764000D02*
X179170000Y-123920000D01*
X179170000Y-126080000D02*
X179170000Y-126236000D01*
X179170000Y-123764484D02*
G75*
G02*
X182401437Y-123920000I1560000J-1235516D01*
G01*
X179689039Y-123920000D02*
G75*
G02*
X181770961Y-123920000I1040961J-1080000D01*
G01*
X181770961Y-126080000D02*
G75*
G02*
X179689039Y-126080000I-1040961J1080000D01*
G01*
X182401437Y-126080000D02*
G75*
G02*
X179170000Y-126235516I-1671437J1080000D01*
G01*
%TO.C,D8*%
X229710000Y-97764000D02*
X229710000Y-97920000D01*
X229710000Y-100080000D02*
X229710000Y-100236000D01*
X229710000Y-97764484D02*
G75*
G02*
X232941437Y-97920000I1560000J-1235516D01*
G01*
X230229039Y-97920000D02*
G75*
G02*
X232310961Y-97920000I1040961J-1080000D01*
G01*
X232310961Y-100080000D02*
G75*
G02*
X230229039Y-100080000I-1040961J1080000D01*
G01*
X232941437Y-100080000D02*
G75*
G02*
X229710000Y-100235516I-1671437J1080000D01*
G01*
%TO.C,D7*%
X224170000Y-75764000D02*
X224170000Y-75920000D01*
X224170000Y-78080000D02*
X224170000Y-78236000D01*
X224170000Y-75764484D02*
G75*
G02*
X227401437Y-75920000I1560000J-1235516D01*
G01*
X224689039Y-75920000D02*
G75*
G02*
X226770961Y-75920000I1040961J-1080000D01*
G01*
X226770961Y-78080000D02*
G75*
G02*
X224689039Y-78080000I-1040961J1080000D01*
G01*
X227401437Y-78080000D02*
G75*
G02*
X224170000Y-78235516I-1671437J1080000D01*
G01*
%TO.C,D5*%
X217710000Y-119764000D02*
X217710000Y-119920000D01*
X217710000Y-122080000D02*
X217710000Y-122236000D01*
X217710000Y-119764484D02*
G75*
G02*
X220941437Y-119920000I1560000J-1235516D01*
G01*
X218229039Y-119920000D02*
G75*
G02*
X220310961Y-119920000I1040961J-1080000D01*
G01*
X220310961Y-122080000D02*
G75*
G02*
X218229039Y-122080000I-1040961J1080000D01*
G01*
X220941437Y-122080000D02*
G75*
G02*
X217710000Y-122235516I-1671437J1080000D01*
G01*
%TO.C,D4*%
X198170000Y-126764000D02*
X198170000Y-126920000D01*
X198170000Y-129080000D02*
X198170000Y-129236000D01*
X198170000Y-126764484D02*
G75*
G02*
X201401437Y-126920000I1560000J-1235516D01*
G01*
X198689039Y-126920000D02*
G75*
G02*
X200770961Y-126920000I1040961J-1080000D01*
G01*
X200770961Y-129080000D02*
G75*
G02*
X198689039Y-129080000I-1040961J1080000D01*
G01*
X201401437Y-129080000D02*
G75*
G02*
X198170000Y-129235516I-1671437J1080000D01*
G01*
%TO.C,D3*%
X161710000Y-93764000D02*
X161710000Y-93920000D01*
X161710000Y-96080000D02*
X161710000Y-96236000D01*
X161710000Y-93764484D02*
G75*
G02*
X164941437Y-93920000I1560000J-1235516D01*
G01*
X162229039Y-93920000D02*
G75*
G02*
X164310961Y-93920000I1040961J-1080000D01*
G01*
X164310961Y-96080000D02*
G75*
G02*
X162229039Y-96080000I-1040961J1080000D01*
G01*
X164941437Y-96080000D02*
G75*
G02*
X161710000Y-96235516I-1671437J1080000D01*
G01*
%TO.C,D2*%
X187170000Y-59764000D02*
X187170000Y-59920000D01*
X187170000Y-62080000D02*
X187170000Y-62236000D01*
X187170000Y-59764484D02*
G75*
G02*
X190401437Y-59920000I1560000J-1235516D01*
G01*
X187689039Y-59920000D02*
G75*
G02*
X189770961Y-59920000I1040961J-1080000D01*
G01*
X189770961Y-62080000D02*
G75*
G02*
X187689039Y-62080000I-1040961J1080000D01*
G01*
X190401437Y-62080000D02*
G75*
G02*
X187170000Y-62235516I-1671437J1080000D01*
G01*
%TO.C,C2*%
X194195225Y-92525000D02*
X194695225Y-92525000D01*
X194445225Y-92275000D02*
X194445225Y-92775000D01*
X197000000Y-91420000D02*
X197000000Y-92960000D01*
X197000000Y-95040000D02*
X197000000Y-96580000D01*
X197040000Y-91420000D02*
X197040000Y-92960000D01*
X197040000Y-95040000D02*
X197040000Y-96580000D01*
X197080000Y-91421000D02*
X197080000Y-92960000D01*
X197080000Y-95040000D02*
X197080000Y-96579000D01*
X197120000Y-91423000D02*
X197120000Y-92960000D01*
X197120000Y-95040000D02*
X197120000Y-96577000D01*
X197160000Y-91425000D02*
X197160000Y-92960000D01*
X197160000Y-95040000D02*
X197160000Y-96575000D01*
X197200000Y-91428000D02*
X197200000Y-92960000D01*
X197200000Y-95040000D02*
X197200000Y-96572000D01*
X197240000Y-91431000D02*
X197240000Y-92960000D01*
X197240000Y-95040000D02*
X197240000Y-96569000D01*
X197280000Y-91435000D02*
X197280000Y-92960000D01*
X197280000Y-95040000D02*
X197280000Y-96565000D01*
X197320000Y-91440000D02*
X197320000Y-92960000D01*
X197320000Y-95040000D02*
X197320000Y-96560000D01*
X197360000Y-91445000D02*
X197360000Y-92960000D01*
X197360000Y-95040000D02*
X197360000Y-96555000D01*
X197400000Y-91451000D02*
X197400000Y-92960000D01*
X197400000Y-95040000D02*
X197400000Y-96549000D01*
X197440000Y-91457000D02*
X197440000Y-92960000D01*
X197440000Y-95040000D02*
X197440000Y-96543000D01*
X197480000Y-91464000D02*
X197480000Y-92960000D01*
X197480000Y-95040000D02*
X197480000Y-96536000D01*
X197520000Y-91472000D02*
X197520000Y-92960000D01*
X197520000Y-95040000D02*
X197520000Y-96528000D01*
X197560000Y-91481000D02*
X197560000Y-92960000D01*
X197560000Y-95040000D02*
X197560000Y-96519000D01*
X197600000Y-91490000D02*
X197600000Y-92960000D01*
X197600000Y-95040000D02*
X197600000Y-96510000D01*
X197640000Y-91499000D02*
X197640000Y-92960000D01*
X197640000Y-95040000D02*
X197640000Y-96501000D01*
X197680000Y-91510000D02*
X197680000Y-92960000D01*
X197680000Y-95040000D02*
X197680000Y-96490000D01*
X197720000Y-91521000D02*
X197720000Y-92960000D01*
X197720000Y-95040000D02*
X197720000Y-96479000D01*
X197760000Y-91533000D02*
X197760000Y-92960000D01*
X197760000Y-95040000D02*
X197760000Y-96467000D01*
X197800000Y-91545000D02*
X197800000Y-92960000D01*
X197800000Y-95040000D02*
X197800000Y-96455000D01*
X197840000Y-91558000D02*
X197840000Y-92960000D01*
X197840000Y-95040000D02*
X197840000Y-96442000D01*
X197880000Y-91572000D02*
X197880000Y-92960000D01*
X197880000Y-95040000D02*
X197880000Y-96428000D01*
X197920000Y-91587000D02*
X197920000Y-92960000D01*
X197920000Y-95040000D02*
X197920000Y-96413000D01*
X197960000Y-91602000D02*
X197960000Y-92960000D01*
X197960000Y-95040000D02*
X197960000Y-96398000D01*
X198000000Y-91618000D02*
X198000000Y-92960000D01*
X198000000Y-95040000D02*
X198000000Y-96382000D01*
X198040000Y-91635000D02*
X198040000Y-92960000D01*
X198040000Y-95040000D02*
X198040000Y-96365000D01*
X198080000Y-91653000D02*
X198080000Y-92960000D01*
X198080000Y-95040000D02*
X198080000Y-96347000D01*
X198120000Y-91671000D02*
X198120000Y-92960000D01*
X198120000Y-95040000D02*
X198120000Y-96329000D01*
X198160000Y-91691000D02*
X198160000Y-92960000D01*
X198160000Y-95040000D02*
X198160000Y-96309000D01*
X198200000Y-91711000D02*
X198200000Y-92960000D01*
X198200000Y-95040000D02*
X198200000Y-96289000D01*
X198240000Y-91732000D02*
X198240000Y-92960000D01*
X198240000Y-95040000D02*
X198240000Y-96268000D01*
X198280000Y-91754000D02*
X198280000Y-92960000D01*
X198280000Y-95040000D02*
X198280000Y-96246000D01*
X198320000Y-91777000D02*
X198320000Y-92960000D01*
X198320000Y-95040000D02*
X198320000Y-96223000D01*
X198360000Y-91801000D02*
X198360000Y-92960000D01*
X198360000Y-95040000D02*
X198360000Y-96199000D01*
X198400000Y-91825000D02*
X198400000Y-92960000D01*
X198400000Y-95040000D02*
X198400000Y-96175000D01*
X198440000Y-91851000D02*
X198440000Y-92960000D01*
X198440000Y-95040000D02*
X198440000Y-96149000D01*
X198480000Y-91878000D02*
X198480000Y-92960000D01*
X198480000Y-95040000D02*
X198480000Y-96122000D01*
X198520000Y-91906000D02*
X198520000Y-92960000D01*
X198520000Y-95040000D02*
X198520000Y-96094000D01*
X198560000Y-91935000D02*
X198560000Y-92960000D01*
X198560000Y-95040000D02*
X198560000Y-96065000D01*
X198600000Y-91965000D02*
X198600000Y-92960000D01*
X198600000Y-95040000D02*
X198600000Y-96035000D01*
X198640000Y-91997000D02*
X198640000Y-92960000D01*
X198640000Y-95040000D02*
X198640000Y-96003000D01*
X198680000Y-92030000D02*
X198680000Y-92960000D01*
X198680000Y-95040000D02*
X198680000Y-95970000D01*
X198720000Y-92064000D02*
X198720000Y-92960000D01*
X198720000Y-95040000D02*
X198720000Y-95936000D01*
X198760000Y-92099000D02*
X198760000Y-92960000D01*
X198760000Y-95040000D02*
X198760000Y-95901000D01*
X198800000Y-92136000D02*
X198800000Y-92960000D01*
X198800000Y-95040000D02*
X198800000Y-95864000D01*
X198840000Y-92175000D02*
X198840000Y-92960000D01*
X198840000Y-95040000D02*
X198840000Y-95825000D01*
X198880000Y-92215000D02*
X198880000Y-92960000D01*
X198880000Y-95040000D02*
X198880000Y-95785000D01*
X198920000Y-92257000D02*
X198920000Y-92960000D01*
X198920000Y-95040000D02*
X198920000Y-95743000D01*
X198960000Y-92301000D02*
X198960000Y-92960000D01*
X198960000Y-95040000D02*
X198960000Y-95699000D01*
X199000000Y-92348000D02*
X199000000Y-92960000D01*
X199000000Y-95040000D02*
X199000000Y-95652000D01*
X199040000Y-92396000D02*
X199040000Y-95604000D01*
X199080000Y-92447000D02*
X199080000Y-95553000D01*
X199120000Y-92501000D02*
X199120000Y-95499000D01*
X199160000Y-92557000D02*
X199160000Y-95443000D01*
X199200000Y-92617000D02*
X199200000Y-95383000D01*
X199240000Y-92681000D02*
X199240000Y-95319000D01*
X199280000Y-92749000D02*
X199280000Y-95251000D01*
X199320000Y-92823000D02*
X199320000Y-95177000D01*
X199360000Y-92902000D02*
X199360000Y-95098000D01*
X199400000Y-92989000D02*
X199400000Y-95011000D01*
X199440000Y-93086000D02*
X199440000Y-94914000D01*
X199480000Y-93195000D02*
X199480000Y-94805000D01*
X199520000Y-93323000D02*
X199520000Y-94677000D01*
X199560000Y-93483000D02*
X199560000Y-94517000D01*
X199600000Y-93717000D02*
X199600000Y-94283000D01*
X199620000Y-94000000D02*
G75*
G02*
X194380000Y-94000000I-2620000J0D01*
G01*
X194380000Y-94000000D02*
G75*
G02*
X199620000Y-94000000I2620000J0D01*
G01*
%TO.C,C1*%
X194290225Y-84830000D02*
X202030225Y-84830000D01*
X194290225Y-90070000D02*
X194290225Y-84830000D01*
X202030225Y-84830000D02*
X202030225Y-90070000D01*
X202030225Y-90070000D02*
X194290225Y-90070000D01*
%TO.C,U3*%
X218340000Y-93440000D02*
X219460000Y-93440000D01*
X218340000Y-97360000D02*
X219460000Y-97360000D01*
X217140000Y-93560000D02*
X216660000Y-93560000D01*
X217140000Y-93080000D01*
X217140000Y-93560000D01*
G36*
X217140000Y-93560000D02*
G01*
X216660000Y-93560000D01*
X217140000Y-93080000D01*
X217140000Y-93560000D01*
G37*
%TO.C,U1*%
X208065000Y-93235000D02*
X208065000Y-103515000D01*
X208065000Y-103515000D02*
X213365000Y-103515000D01*
X209715000Y-93235000D02*
X208065000Y-93235000D01*
X213365000Y-93235000D02*
X211715000Y-93235000D01*
X213365000Y-103515000D02*
X213365000Y-93235000D01*
X211715000Y-93235000D02*
G75*
G02*
X209715000Y-93235000I-1000000J0D01*
G01*
%TD*%
M02*
